<mxfile host="app.diagrams.net" agent="Mozilla/5.0 (Macintosh; Intel Mac OS X 10_15_7) AppleWebKit/537.36 (KHTML, like Gecko) Chrome/126.0.0.0 Safari/537.36" version="24.7.5">
  <diagram id="C5RBs43oDa-KdzZeNtuy" name="Page-1">
    <mxGraphModel dx="2049" dy="650" grid="1" gridSize="10" guides="1" tooltips="1" connect="1" arrows="1" fold="1" page="1" pageScale="1" pageWidth="827" pageHeight="1169" math="0" shadow="0">
      <root>
        <mxCell id="WIyWlLk6GJQsqaUBKTNV-0" />
        <mxCell id="WIyWlLk6GJQsqaUBKTNV-1" parent="WIyWlLk6GJQsqaUBKTNV-0" />
        <mxCell id="piB92WX1GVS21fg7F7WX-65" value="" style="rounded=1;whiteSpace=wrap;html=1;fillColor=#7EA6E0;strokeColor=#36393d;" vertex="1" parent="WIyWlLk6GJQsqaUBKTNV-1">
          <mxGeometry x="-175" y="212" width="130" height="260" as="geometry" />
        </mxCell>
        <mxCell id="piB92WX1GVS21fg7F7WX-44" value="&lt;div&gt;&lt;b&gt;&lt;font color=&quot;#ffffff&quot;&gt;PipeEngine&lt;/font&gt;&lt;/b&gt;&lt;/div&gt;" style="rounded=1;whiteSpace=wrap;html=1;fillColor=#99CCFF;gradientColor=none;strokeColor=#996185;" vertex="1" parent="WIyWlLk6GJQsqaUBKTNV-1">
          <mxGeometry x="110" y="230" width="820" height="220" as="geometry" />
        </mxCell>
        <mxCell id="piB92WX1GVS21fg7F7WX-0" value="1" style="rounded=1;whiteSpace=wrap;html=1;fillColor=#1ba1e2;strokeColor=#006EAF;fontColor=#ffffff;" vertex="1" parent="WIyWlLk6GJQsqaUBKTNV-1">
          <mxGeometry x="400" y="270" width="30" height="30" as="geometry" />
        </mxCell>
        <mxCell id="piB92WX1GVS21fg7F7WX-2" value="2" style="rounded=1;whiteSpace=wrap;html=1;fillColor=#1ba1e2;strokeColor=#006EAF;fontColor=#ffffff;" vertex="1" parent="WIyWlLk6GJQsqaUBKTNV-1">
          <mxGeometry x="430" y="270" width="30" height="30" as="geometry" />
        </mxCell>
        <mxCell id="piB92WX1GVS21fg7F7WX-3" value="3" style="rounded=1;whiteSpace=wrap;html=1;fillColor=#1ba1e2;strokeColor=#006EAF;fontColor=#ffffff;" vertex="1" parent="WIyWlLk6GJQsqaUBKTNV-1">
          <mxGeometry x="460" y="270" width="30" height="30" as="geometry" />
        </mxCell>
        <mxCell id="piB92WX1GVS21fg7F7WX-4" value="4" style="rounded=1;whiteSpace=wrap;html=1;fillColor=#1ba1e2;strokeColor=#006EAF;fontColor=#ffffff;" vertex="1" parent="WIyWlLk6GJQsqaUBKTNV-1">
          <mxGeometry x="490" y="270" width="30" height="30" as="geometry" />
        </mxCell>
        <mxCell id="piB92WX1GVS21fg7F7WX-5" value="1" style="rounded=1;whiteSpace=wrap;html=1;fillColor=#1ba1e2;strokeColor=#006EAF;fontColor=#ffffff;" vertex="1" parent="WIyWlLk6GJQsqaUBKTNV-1">
          <mxGeometry x="430" y="300" width="30" height="30" as="geometry" />
        </mxCell>
        <mxCell id="piB92WX1GVS21fg7F7WX-6" value="2" style="rounded=1;whiteSpace=wrap;html=1;fillColor=#1ba1e2;strokeColor=#006EAF;fontColor=#ffffff;" vertex="1" parent="WIyWlLk6GJQsqaUBKTNV-1">
          <mxGeometry x="460" y="300" width="30" height="30" as="geometry" />
        </mxCell>
        <mxCell id="piB92WX1GVS21fg7F7WX-7" value="3" style="rounded=1;whiteSpace=wrap;html=1;fillColor=#1ba1e2;strokeColor=#006EAF;fontColor=#ffffff;" vertex="1" parent="WIyWlLk6GJQsqaUBKTNV-1">
          <mxGeometry x="490" y="300" width="30" height="30" as="geometry" />
        </mxCell>
        <mxCell id="piB92WX1GVS21fg7F7WX-8" value="4" style="rounded=1;whiteSpace=wrap;html=1;fillColor=#1ba1e2;strokeColor=#006EAF;fontColor=#ffffff;" vertex="1" parent="WIyWlLk6GJQsqaUBKTNV-1">
          <mxGeometry x="520" y="300" width="30" height="30" as="geometry" />
        </mxCell>
        <mxCell id="piB92WX1GVS21fg7F7WX-9" value="1" style="rounded=1;whiteSpace=wrap;html=1;fillColor=#1ba1e2;strokeColor=#006EAF;fontColor=#ffffff;" vertex="1" parent="WIyWlLk6GJQsqaUBKTNV-1">
          <mxGeometry x="460" y="330" width="30" height="30" as="geometry" />
        </mxCell>
        <mxCell id="piB92WX1GVS21fg7F7WX-10" value="2" style="rounded=1;whiteSpace=wrap;html=1;fillColor=#1ba1e2;strokeColor=#006EAF;fontColor=#ffffff;" vertex="1" parent="WIyWlLk6GJQsqaUBKTNV-1">
          <mxGeometry x="490" y="330" width="30" height="30" as="geometry" />
        </mxCell>
        <mxCell id="piB92WX1GVS21fg7F7WX-11" value="3" style="rounded=1;whiteSpace=wrap;html=1;fillColor=#1ba1e2;strokeColor=#006EAF;fontColor=#ffffff;" vertex="1" parent="WIyWlLk6GJQsqaUBKTNV-1">
          <mxGeometry x="520" y="330" width="30" height="30" as="geometry" />
        </mxCell>
        <mxCell id="piB92WX1GVS21fg7F7WX-12" value="4" style="rounded=1;whiteSpace=wrap;html=1;fillColor=#1ba1e2;strokeColor=#006EAF;fontColor=#ffffff;" vertex="1" parent="WIyWlLk6GJQsqaUBKTNV-1">
          <mxGeometry x="550" y="330" width="30" height="30" as="geometry" />
        </mxCell>
        <mxCell id="piB92WX1GVS21fg7F7WX-13" value="1" style="rounded=1;whiteSpace=wrap;html=1;fillColor=#1ba1e2;strokeColor=#006EAF;fontColor=#ffffff;" vertex="1" parent="WIyWlLk6GJQsqaUBKTNV-1">
          <mxGeometry x="490" y="360" width="30" height="30" as="geometry" />
        </mxCell>
        <mxCell id="piB92WX1GVS21fg7F7WX-14" value="2" style="rounded=1;whiteSpace=wrap;html=1;fillColor=#1ba1e2;strokeColor=#006EAF;fontColor=#ffffff;" vertex="1" parent="WIyWlLk6GJQsqaUBKTNV-1">
          <mxGeometry x="520" y="360" width="30" height="30" as="geometry" />
        </mxCell>
        <mxCell id="piB92WX1GVS21fg7F7WX-15" value="3" style="rounded=1;whiteSpace=wrap;html=1;fillColor=#1ba1e2;strokeColor=#006EAF;fontColor=#ffffff;" vertex="1" parent="WIyWlLk6GJQsqaUBKTNV-1">
          <mxGeometry x="550" y="360" width="30" height="30" as="geometry" />
        </mxCell>
        <mxCell id="piB92WX1GVS21fg7F7WX-16" value="4" style="rounded=1;whiteSpace=wrap;html=1;fillColor=#1ba1e2;strokeColor=#006EAF;fontColor=#ffffff;" vertex="1" parent="WIyWlLk6GJQsqaUBKTNV-1">
          <mxGeometry x="580" y="360" width="30" height="30" as="geometry" />
        </mxCell>
        <mxCell id="piB92WX1GVS21fg7F7WX-17" value="1" style="rounded=1;whiteSpace=wrap;html=1;fillColor=#60a917;strokeColor=#2D7600;fontColor=#ffffff;" vertex="1" parent="WIyWlLk6GJQsqaUBKTNV-1">
          <mxGeometry x="610" y="360" width="40" height="30" as="geometry" />
        </mxCell>
        <mxCell id="piB92WX1GVS21fg7F7WX-18" value="2" style="rounded=1;whiteSpace=wrap;html=1;fillColor=#60a917;strokeColor=#2D7600;fontColor=#ffffff;" vertex="1" parent="WIyWlLk6GJQsqaUBKTNV-1">
          <mxGeometry x="650" y="360" width="40" height="30" as="geometry" />
        </mxCell>
        <mxCell id="piB92WX1GVS21fg7F7WX-19" value="3" style="rounded=1;whiteSpace=wrap;html=1;fillColor=#60a917;strokeColor=#2D7600;fontColor=#ffffff;" vertex="1" parent="WIyWlLk6GJQsqaUBKTNV-1">
          <mxGeometry x="690" y="360" width="40" height="30" as="geometry" />
        </mxCell>
        <mxCell id="piB92WX1GVS21fg7F7WX-20" value="4" style="rounded=1;whiteSpace=wrap;html=1;fillColor=#60a917;strokeColor=#2D7600;fontColor=#ffffff;" vertex="1" parent="WIyWlLk6GJQsqaUBKTNV-1">
          <mxGeometry x="730" y="360" width="40" height="30" as="geometry" />
        </mxCell>
        <mxCell id="piB92WX1GVS21fg7F7WX-21" value="1" style="rounded=1;whiteSpace=wrap;html=1;fillColor=#60a917;strokeColor=#2D7600;fontColor=#ffffff;" vertex="1" parent="WIyWlLk6GJQsqaUBKTNV-1">
          <mxGeometry x="650" y="330" width="40" height="30" as="geometry" />
        </mxCell>
        <mxCell id="piB92WX1GVS21fg7F7WX-22" value="2" style="rounded=1;whiteSpace=wrap;html=1;fillColor=#60a917;strokeColor=#2D7600;fontColor=#ffffff;" vertex="1" parent="WIyWlLk6GJQsqaUBKTNV-1">
          <mxGeometry x="690" y="330" width="40" height="30" as="geometry" />
        </mxCell>
        <mxCell id="piB92WX1GVS21fg7F7WX-23" value="3" style="rounded=1;whiteSpace=wrap;html=1;fillColor=#60a917;strokeColor=#2D7600;fontColor=#ffffff;" vertex="1" parent="WIyWlLk6GJQsqaUBKTNV-1">
          <mxGeometry x="730" y="330" width="40" height="30" as="geometry" />
        </mxCell>
        <mxCell id="piB92WX1GVS21fg7F7WX-24" value="4" style="rounded=1;whiteSpace=wrap;html=1;fillColor=#60a917;strokeColor=#2D7600;fontColor=#ffffff;" vertex="1" parent="WIyWlLk6GJQsqaUBKTNV-1">
          <mxGeometry x="770" y="330" width="40" height="30" as="geometry" />
        </mxCell>
        <mxCell id="piB92WX1GVS21fg7F7WX-25" value="1" style="rounded=1;whiteSpace=wrap;html=1;fillColor=#60a917;strokeColor=#2D7600;fontColor=#ffffff;" vertex="1" parent="WIyWlLk6GJQsqaUBKTNV-1">
          <mxGeometry x="690" y="300" width="40" height="30" as="geometry" />
        </mxCell>
        <mxCell id="piB92WX1GVS21fg7F7WX-26" value="2" style="rounded=1;whiteSpace=wrap;html=1;fillColor=#60a917;strokeColor=#2D7600;fontColor=#ffffff;" vertex="1" parent="WIyWlLk6GJQsqaUBKTNV-1">
          <mxGeometry x="730" y="300" width="40" height="30" as="geometry" />
        </mxCell>
        <mxCell id="piB92WX1GVS21fg7F7WX-27" value="3" style="rounded=1;whiteSpace=wrap;html=1;fillColor=#60a917;strokeColor=#2D7600;fontColor=#ffffff;" vertex="1" parent="WIyWlLk6GJQsqaUBKTNV-1">
          <mxGeometry x="770" y="300" width="40" height="30" as="geometry" />
        </mxCell>
        <mxCell id="piB92WX1GVS21fg7F7WX-28" value="4" style="rounded=1;whiteSpace=wrap;html=1;fillColor=#60a917;strokeColor=#2D7600;fontColor=#ffffff;" vertex="1" parent="WIyWlLk6GJQsqaUBKTNV-1">
          <mxGeometry x="810" y="300" width="40" height="30" as="geometry" />
        </mxCell>
        <mxCell id="piB92WX1GVS21fg7F7WX-29" value="1" style="rounded=1;whiteSpace=wrap;html=1;fillColor=#60a917;strokeColor=#2D7600;fontColor=#ffffff;" vertex="1" parent="WIyWlLk6GJQsqaUBKTNV-1">
          <mxGeometry x="730" y="270" width="40" height="30" as="geometry" />
        </mxCell>
        <mxCell id="piB92WX1GVS21fg7F7WX-30" value="2" style="rounded=1;whiteSpace=wrap;html=1;fillColor=#60a917;strokeColor=#2D7600;fontColor=#ffffff;" vertex="1" parent="WIyWlLk6GJQsqaUBKTNV-1">
          <mxGeometry x="770" y="270" width="40" height="30" as="geometry" />
        </mxCell>
        <mxCell id="piB92WX1GVS21fg7F7WX-31" value="3" style="rounded=1;whiteSpace=wrap;html=1;fillColor=#60a917;strokeColor=#2D7600;fontColor=#ffffff;" vertex="1" parent="WIyWlLk6GJQsqaUBKTNV-1">
          <mxGeometry x="810" y="270" width="40" height="30" as="geometry" />
        </mxCell>
        <mxCell id="piB92WX1GVS21fg7F7WX-32" value="4" style="rounded=1;whiteSpace=wrap;html=1;fillColor=#60a917;strokeColor=#2D7600;fontColor=#ffffff;" vertex="1" parent="WIyWlLk6GJQsqaUBKTNV-1">
          <mxGeometry x="850" y="270" width="40" height="30" as="geometry" />
        </mxCell>
        <mxCell id="piB92WX1GVS21fg7F7WX-34" value="" style="endArrow=none;html=1;rounded=0;strokeWidth=3;" edge="1" parent="WIyWlLk6GJQsqaUBKTNV-1">
          <mxGeometry width="50" height="50" relative="1" as="geometry">
            <mxPoint x="890" y="400" as="sourcePoint" />
            <mxPoint x="890" y="250" as="targetPoint" />
          </mxGeometry>
        </mxCell>
        <mxCell id="piB92WX1GVS21fg7F7WX-36" value="&lt;font color=&quot;#808080&quot; style=&quot;font-size: 14px;&quot;&gt;&lt;b&gt;Flush&lt;/b&gt;&lt;/font&gt;" style="text;html=1;align=center;verticalAlign=middle;whiteSpace=wrap;rounded=0;" vertex="1" parent="WIyWlLk6GJQsqaUBKTNV-1">
          <mxGeometry x="860" y="400" width="60" height="30" as="geometry" />
        </mxCell>
        <mxCell id="piB92WX1GVS21fg7F7WX-37" value="&lt;font style=&quot;font-size: 30px;&quot;&gt;...&lt;/font&gt;" style="text;html=1;align=center;verticalAlign=middle;whiteSpace=wrap;rounded=0;strokeWidth=6;" vertex="1" parent="WIyWlLk6GJQsqaUBKTNV-1">
          <mxGeometry x="879" y="316" width="60" height="30" as="geometry" />
        </mxCell>
        <mxCell id="piB92WX1GVS21fg7F7WX-38" value="" style="endArrow=classic;html=1;rounded=0;dashed=1;dashPattern=12 12;" edge="1" parent="WIyWlLk6GJQsqaUBKTNV-1">
          <mxGeometry width="50" height="50" relative="1" as="geometry">
            <mxPoint x="400" y="390" as="sourcePoint" />
            <mxPoint x="920" y="390" as="targetPoint" />
          </mxGeometry>
        </mxCell>
        <mxCell id="piB92WX1GVS21fg7F7WX-39" value="&lt;font style=&quot;font-size: 14px;&quot;&gt;Time&lt;/font&gt;" style="text;html=1;align=center;verticalAlign=middle;whiteSpace=wrap;rounded=0;" vertex="1" parent="WIyWlLk6GJQsqaUBKTNV-1">
          <mxGeometry x="385" y="390" width="60" height="30" as="geometry" />
        </mxCell>
        <mxCell id="piB92WX1GVS21fg7F7WX-40" value="&lt;font color=&quot;#ffffff&quot;&gt;&lt;b&gt;PipeModule&lt;/b&gt;&lt;/font&gt;&lt;div&gt;&lt;font color=&quot;#ffffff&quot;&gt;&lt;b&gt;Stage 1&lt;/b&gt;&lt;/font&gt;&lt;/div&gt;" style="rounded=1;whiteSpace=wrap;html=1;fillColor=#f0a30a;fontColor=#000000;strokeColor=#BD7000;" vertex="1" parent="WIyWlLk6GJQsqaUBKTNV-1">
          <mxGeometry x="121" y="248" width="91" height="60" as="geometry" />
        </mxCell>
        <mxCell id="piB92WX1GVS21fg7F7WX-41" value="&lt;font color=&quot;#ffffff&quot;&gt;&lt;b&gt;PipeModule&lt;/b&gt;&lt;/font&gt;&lt;div&gt;&lt;font color=&quot;#ffffff&quot;&gt;&lt;b&gt;Stage 2&lt;/b&gt;&lt;/font&gt;&lt;/div&gt;" style="rounded=1;whiteSpace=wrap;html=1;fillColor=#f0a30a;fontColor=#000000;strokeColor=#BD7000;" vertex="1" parent="WIyWlLk6GJQsqaUBKTNV-1">
          <mxGeometry x="151" y="296" width="91" height="60" as="geometry" />
        </mxCell>
        <mxCell id="piB92WX1GVS21fg7F7WX-42" value="&lt;font color=&quot;#ffffff&quot;&gt;&lt;b&gt;PipeModule&lt;/b&gt;&lt;/font&gt;&lt;div&gt;&lt;font color=&quot;#ffffff&quot;&gt;&lt;b&gt;Stage 3&lt;/b&gt;&lt;/font&gt;&lt;/div&gt;" style="rounded=1;whiteSpace=wrap;html=1;fillColor=#f0a30a;fontColor=#000000;strokeColor=#BD7000;" vertex="1" parent="WIyWlLk6GJQsqaUBKTNV-1">
          <mxGeometry x="191" y="341" width="91" height="59" as="geometry" />
        </mxCell>
        <mxCell id="piB92WX1GVS21fg7F7WX-43" value="&lt;font color=&quot;#ffffff&quot;&gt;&lt;b&gt;PipeModule&lt;/b&gt;&lt;/font&gt;&lt;div&gt;&lt;font color=&quot;#ffffff&quot;&gt;&lt;b&gt;Stage 4&lt;/b&gt;&lt;/font&gt;&lt;/div&gt;" style="rounded=1;whiteSpace=wrap;html=1;fillColor=#f0a30a;fontColor=#000000;strokeColor=#BD7000;" vertex="1" parent="WIyWlLk6GJQsqaUBKTNV-1">
          <mxGeometry x="227" y="386" width="91" height="54" as="geometry" />
        </mxCell>
        <mxCell id="piB92WX1GVS21fg7F7WX-45" value="" style="shape=flexArrow;endArrow=classic;html=1;rounded=0;fillColor=#B3B3B3;strokeColor=#36393d;width=21;endSize=7.33;endWidth=40;" edge="1" parent="WIyWlLk6GJQsqaUBKTNV-1">
          <mxGeometry width="50" height="50" relative="1" as="geometry">
            <mxPoint x="329" y="333" as="sourcePoint" />
            <mxPoint x="394" y="333" as="targetPoint" />
          </mxGeometry>
        </mxCell>
        <mxCell id="piB92WX1GVS21fg7F7WX-46" value="&lt;font size=&quot;1&quot; color=&quot;#ffffff&quot; style=&quot;&quot;&gt;&lt;b style=&quot;font-size: 18px;&quot;&gt;PipeEngine&lt;/b&gt;&lt;/font&gt;" style="text;html=1;align=center;verticalAlign=middle;whiteSpace=wrap;rounded=0;" vertex="1" parent="WIyWlLk6GJQsqaUBKTNV-1">
          <mxGeometry x="460" y="230" width="135" height="30" as="geometry" />
        </mxCell>
        <mxCell id="piB92WX1GVS21fg7F7WX-48" value="" style="endArrow=classic;html=1;rounded=0;" edge="1" parent="WIyWlLk6GJQsqaUBKTNV-1">
          <mxGeometry width="50" height="50" relative="1" as="geometry">
            <mxPoint x="400" y="390" as="sourcePoint" />
            <mxPoint x="400" y="267" as="targetPoint" />
          </mxGeometry>
        </mxCell>
        <mxCell id="piB92WX1GVS21fg7F7WX-50" value="Fwd" style="rounded=1;whiteSpace=wrap;html=1;fillColor=#1ba1e2;strokeColor=#006EAF;fontColor=#ffffff;" vertex="1" parent="WIyWlLk6GJQsqaUBKTNV-1">
          <mxGeometry x="790" y="398" width="30" height="30" as="geometry" />
        </mxCell>
        <mxCell id="piB92WX1GVS21fg7F7WX-51" value="Bwd" style="rounded=1;whiteSpace=wrap;html=1;fillColor=#60a917;strokeColor=#2D7600;fontColor=#ffffff;" vertex="1" parent="WIyWlLk6GJQsqaUBKTNV-1">
          <mxGeometry x="820" y="398" width="40" height="30" as="geometry" />
        </mxCell>
        <mxCell id="piB92WX1GVS21fg7F7WX-52" value="" style="shape=flexArrow;endArrow=classic;html=1;rounded=0;fillColor=#B3B3B3;strokeColor=#CCCCCC;width=21;endSize=7.33;endWidth=40;" edge="1" parent="WIyWlLk6GJQsqaUBKTNV-1">
          <mxGeometry width="50" height="50" relative="1" as="geometry">
            <mxPoint x="-30" y="330" as="sourcePoint" />
            <mxPoint x="90" y="330" as="targetPoint" />
          </mxGeometry>
        </mxCell>
        <mxCell id="piB92WX1GVS21fg7F7WX-53" value="&lt;font color=&quot;#ffffff&quot;&gt;&lt;b&gt;Module 1&lt;/b&gt;&lt;/font&gt;" style="rounded=1;whiteSpace=wrap;html=1;fillColor=#ffcc99;strokeColor=#36393d;" vertex="1" parent="WIyWlLk6GJQsqaUBKTNV-1">
          <mxGeometry x="-165" y="225" width="111" height="42" as="geometry" />
        </mxCell>
        <mxCell id="piB92WX1GVS21fg7F7WX-54" value="&lt;font color=&quot;#ffffff&quot;&gt;&lt;b&gt;Module 2&lt;/b&gt;&lt;/font&gt;" style="rounded=1;whiteSpace=wrap;html=1;fillColor=#ffcc99;strokeColor=#36393d;" vertex="1" parent="WIyWlLk6GJQsqaUBKTNV-1">
          <mxGeometry x="-165" y="287" width="111" height="42" as="geometry" />
        </mxCell>
        <mxCell id="piB92WX1GVS21fg7F7WX-55" value="" style="endArrow=classic;html=1;rounded=0;exitX=0.5;exitY=1;exitDx=0;exitDy=0;" edge="1" parent="WIyWlLk6GJQsqaUBKTNV-1" source="piB92WX1GVS21fg7F7WX-53" target="piB92WX1GVS21fg7F7WX-54">
          <mxGeometry width="50" height="50" relative="1" as="geometry">
            <mxPoint x="105" y="223" as="sourcePoint" />
            <mxPoint x="155" y="173" as="targetPoint" />
          </mxGeometry>
        </mxCell>
        <mxCell id="piB92WX1GVS21fg7F7WX-60" value="" style="edgeStyle=orthogonalEdgeStyle;rounded=0;orthogonalLoop=1;jettySize=auto;html=1;" edge="1" parent="WIyWlLk6GJQsqaUBKTNV-1" source="piB92WX1GVS21fg7F7WX-56" target="piB92WX1GVS21fg7F7WX-59">
          <mxGeometry relative="1" as="geometry" />
        </mxCell>
        <mxCell id="piB92WX1GVS21fg7F7WX-56" value="&lt;font color=&quot;#ffffff&quot;&gt;&lt;b&gt;Module 3&lt;/b&gt;&lt;/font&gt;" style="rounded=1;whiteSpace=wrap;html=1;fillColor=#ffcc99;strokeColor=#36393d;" vertex="1" parent="WIyWlLk6GJQsqaUBKTNV-1">
          <mxGeometry x="-165" y="345" width="111" height="42" as="geometry" />
        </mxCell>
        <mxCell id="piB92WX1GVS21fg7F7WX-57" value="" style="endArrow=classic;html=1;rounded=0;exitX=0.5;exitY=1;exitDx=0;exitDy=0;" edge="1" parent="WIyWlLk6GJQsqaUBKTNV-1" source="piB92WX1GVS21fg7F7WX-54" target="piB92WX1GVS21fg7F7WX-56">
          <mxGeometry width="50" height="50" relative="1" as="geometry">
            <mxPoint x="-89" y="253" as="sourcePoint" />
            <mxPoint x="-89" y="279" as="targetPoint" />
          </mxGeometry>
        </mxCell>
        <mxCell id="piB92WX1GVS21fg7F7WX-59" value="&lt;font color=&quot;#ffffff&quot;&gt;&lt;b&gt;Module 4&lt;/b&gt;&lt;/font&gt;" style="rounded=1;whiteSpace=wrap;html=1;fillColor=#ffcc99;strokeColor=#36393d;" vertex="1" parent="WIyWlLk6GJQsqaUBKTNV-1">
          <mxGeometry x="-165" y="403" width="111" height="42" as="geometry" />
        </mxCell>
        <mxCell id="piB92WX1GVS21fg7F7WX-63" value="&lt;font color=&quot;#999999&quot; size=&quot;1&quot; style=&quot;&quot;&gt;&lt;b style=&quot;font-size: 18px;&quot;&gt;PipeParser&lt;/b&gt;&lt;/font&gt;" style="text;html=1;align=center;verticalAlign=middle;whiteSpace=wrap;rounded=0;" vertex="1" parent="WIyWlLk6GJQsqaUBKTNV-1">
          <mxGeometry x="-40" y="270" width="135" height="30" as="geometry" />
        </mxCell>
        <mxCell id="piB92WX1GVS21fg7F7WX-69" value="&lt;font color=&quot;#ffffff&quot; style=&quot;font-size: 14px;&quot;&gt;&lt;b&gt;Model&lt;/b&gt;&lt;/font&gt;" style="text;html=1;align=center;verticalAlign=middle;whiteSpace=wrap;rounded=0;" vertex="1" parent="WIyWlLk6GJQsqaUBKTNV-1">
          <mxGeometry x="-175" y="442" width="135" height="30" as="geometry" />
        </mxCell>
        <mxCell id="piB92WX1GVS21fg7F7WX-70" value="&lt;font color=&quot;#000000&quot; style=&quot;&quot; size=&quot;1&quot;&gt;&lt;b style=&quot;font-size: 14px;&quot;&gt;PipeSchedule&lt;/b&gt;&lt;/font&gt;" style="text;html=1;align=center;verticalAlign=middle;whiteSpace=wrap;rounded=0;fontColor=#FF9933;" vertex="1" parent="WIyWlLk6GJQsqaUBKTNV-1">
          <mxGeometry x="264" y="278" width="135" height="30" as="geometry" />
        </mxCell>
      </root>
    </mxGraphModel>
  </diagram>
</mxfile>
